<?xml version="1.0" standalone="no"?><!DOCTYPE svg PUBLIC "-//W3C//DTD SVG 1.1//EN" "http://www.w3.org/Graphics/SVG/1.1/DTD/svg11.dtd"><svg t="1495184671553" class="icon" style="" viewBox="0 0 1024 1024" version="1.1" xmlns="http://www.w3.org/2000/svg" p-id="10324" xmlns:xlink="http://www.w3.org/1999/xlink" width="200" height="200"><defs><style type="text/css"></style></defs><path d="M512 4.3008C229.7856 4.3008 0.8192 231.6288 0.8192 512c0 280.3712 228.7616 507.6992 511.1808 507.6992 282.2144 0 511.1808-227.328 511.1808-507.6992C1023.1808 231.6288 794.2144 4.3008 512 4.3008L512 4.3008zM656.9984 369.0496c-10.24 29.696-29.2864 65.7408-57.1392 108.3392-27.8528 42.5984-72.704 99.9424-134.7584 171.6224-7.7824 9.0112-51.4048 54.0672-130.6624 135.5776l-21.7088 0c-9.4208-246.784-29.0816-400.5888-58.7776-461.824-9.8304-19.8656-26.0096-29.9008-48.9472-29.9008-9.8304 0-23.7568 1.8432-41.7792 5.3248l-4.096-20.48 170.1888-36.2496c12.0832 28.8768 21.9136 58.1632 29.4912 88.2688 10.6496 44.032 19.2512 96.256 25.8048 156.672 3.072 30.3104 7.3728 94.8224 12.9024 192.9216 48.9472-53.8624 78.2336-87.04 87.6544-99.9424 51.8144-69.8368 81.5104-110.7968 89.4976-122.88 12.9024-20.6848 21.9136-38.7072 27.0336-54.272 4.3008-11.6736 6.5536-22.7328 6.5536-33.3824 0-10.0352-9.0112-21.9136-27.4432-35.0208-18.2272-13.312-27.4432-28.0576-27.4432-44.4416 0-12.4928 4.9152-23.552 14.9504-33.3824 10.0352-9.8304 21.9136-14.5408 35.6352-14.5408 16.384 0 30.9248 6.7584 43.6224 20.0704 12.4928 13.5168 18.8416 30.1056 18.8416 49.9712C666.4192 331.5712 663.3472 350.6176 656.9984 369.0496L656.9984 369.0496zM807.3216 770.6624l-36.864 0L770.4576 525.9264l-0.8192 0-48.9472 26.2144-7.3728-28.8768 61.6448-32.768 32.5632 0L807.3216 770.6624 807.3216 770.6624zM807.3216 770.6624" p-id="10325"></path></svg>