<?xml version="1.0" standalone="no"?><!DOCTYPE svg PUBLIC "-//W3C//DTD SVG 1.1//EN" "http://www.w3.org/Graphics/SVG/1.1/DTD/svg11.dtd"><svg t="1495184689490" class="icon" style="" viewBox="0 0 1024 1024" version="1.1" xmlns="http://www.w3.org/2000/svg" p-id="10493" xmlns:xlink="http://www.w3.org/1999/xlink" width="200" height="200"><defs><style type="text/css"></style></defs><path d="M775.3728 612.9664c-22.528 0-43.4176 13.9264-53.8624 33.792-2.6624 4.3008-4.3008 9.8304-4.3008 16.5888 0.8192 45.2608 21.7088 78.848 61.0304 78.848 32.3584 0 54.272-26.624 54.272-66.1504C832.512 636.7232 809.984 612.9664 775.3728 612.9664L775.3728 612.9664zM512 12.4928C234.2912 12.4928 9.216 236.1344 9.216 512c0 275.8656 225.0752 499.5072 502.784 499.5072 277.7088 0 502.784-223.6416 502.784-499.5072C1014.784 236.1344 789.7088 12.4928 512 12.4928L512 12.4928zM654.7456 371.3024c-10.0352 29.0816-28.672 64.7168-56.1152 106.7008-27.4432 41.984-71.4752 98.304-132.5056 168.7552-7.7824 8.8064-50.5856 53.248-128.6144 133.5296l-21.2992 0c-9.216-242.688-28.672-394.24-57.9584-454.4512-9.6256-19.6608-25.6-29.2864-48.128-29.2864-9.6256 0-23.3472 1.6384-41.1648 5.12l-4.096-20.0704 167.3216-35.6352c11.8784 28.4672 21.504 57.344 28.8768 86.8352 10.4448 43.4176 18.8416 94.6176 25.3952 154.2144 3.072 29.9008 7.3728 93.184 12.6976 189.8496 48.128-52.8384 77.0048-85.6064 86.2208-98.304 50.9952-68.608 80.2816-108.9536 88.064-120.832 12.6976-20.2752 21.504-38.0928 26.624-53.4528 4.3008-11.4688 6.3488-22.528 6.3488-32.768 0-10.0352-9.0112-21.504-26.8288-34.6112-18.0224-13.1072-27.0336-27.648-27.0336-43.6224 0-12.288 4.9152-23.1424 14.7456-32.768 9.8304-9.6256 21.504-14.336 35.0208-14.336 16.1792 0 30.5152 6.5536 42.8032 19.8656 12.288 13.312 18.6368 29.4912 18.6368 49.152C663.9616 334.4384 660.8896 353.28 654.7456 371.3024L654.7456 371.3024zM778.24 771.072c-59.392 0-98.0992-45.6704-98.0992-117.3504 0-54.272 19.6608-97.0752 46.8992-124.1088 22.9376-22.528 53.8624-36.4544 88.6784-40.7552 11.0592-1.6384 20.48-2.048 27.2384-2.048l0 30.5152c-7.5776-0.4096-17.408 0-28.0576 1.6384-58.7776 9.8304-89.9072 52.6336-96.4608 97.8944l1.2288 0c13.312-17.408 36.2496-31.744 66.9696-31.744 49.152 0 83.5584 35.2256 83.5584 89.088C870.4 724.3776 835.9936 771.072 778.24 771.072L778.24 771.072zM778.24 771.072" p-id="10494"></path></svg>