<?xml version="1.0" standalone="no"?><!DOCTYPE svg PUBLIC "-//W3C//DTD SVG 1.1//EN" "http://www.w3.org/Graphics/SVG/1.1/DTD/svg11.dtd"><svg t="1495185399416" class="icon" style="" viewBox="0 0 1024 1024" version="1.1" xmlns="http://www.w3.org/2000/svg" p-id="12317" xmlns:xlink="http://www.w3.org/1999/xlink" width="200" height="200"><defs><style type="text/css"></style></defs><path d="M789.0944 522.0352c-17.6128 0-30.9248 9.4208-39.936 28.0576-9.0112 18.6368-13.5168 46.8992-13.5168 84.992 0 35.0208 4.3008 61.0304 13.312 78.4384 8.8064 17.408 21.7088 26.0096 38.7072 26.0096 16.9984 0 29.696-8.8064 38.5024-26.4192 8.8064-17.6128 13.1072-44.2368 13.1072-80.0768 0-37.0688-4.3008-64.9216-12.6976-83.1488C817.9712 531.2512 805.4784 522.0352 789.0944 522.0352z" p-id="12318" fill="#ffffff"></path><path d="M512 6.144C230.8096 6.144 2.8672 232.6528 2.8672 512c0 279.3472 227.9424 505.856 509.1328 505.856 281.1904 0 509.1328-226.5088 509.1328-505.856C1021.1328 232.6528 793.1904 6.144 512 6.144zM656.384 369.4592c-10.24 29.4912-29.0816 65.536-56.9344 107.9296-27.648 42.5984-72.4992 99.5328-134.3488 171.008-7.7824 9.0112-51.2 54.0672-130.2528 135.168l-21.7088 0c-9.4208-245.76-28.8768-399.1552-58.5728-460.1856-9.8304-19.8656-26.0096-29.696-48.7424-29.696-9.8304 0-23.552 1.8432-41.5744 5.3248l-4.096-20.2752 169.3696-36.0448c12.0832 28.672 21.9136 57.9584 29.2864 87.8592 10.6496 43.8272 19.0464 95.8464 25.8048 156.0576 3.072 30.3104 7.3728 94.4128 12.9024 192.3072 48.9472-53.6576 78.0288-86.8352 87.4496-99.5328 51.6096-69.4272 81.3056-110.1824 89.088-122.2656 12.9024-20.48 21.9136-38.7072 27.0336-54.0672 4.3008-11.6736 6.3488-22.7328 6.3488-33.1776 0-10.0352-9.0112-21.7088-27.2384-35.0208-18.2272-13.1072-27.2384-27.8528-27.2384-44.2368 0-12.4928 4.9152-23.552 14.9504-33.1776 10.0352-9.6256 21.7088-14.5408 35.4304-14.5408 16.384 0 30.9248 6.7584 43.4176 20.0704 12.4928 13.312 18.8416 29.9008 18.8416 49.7664C665.8048 332.1856 662.7328 351.232 656.384 369.4592zM855.8592 734.8224c-8.192 12.288-18.2272 21.504-30.1056 28.0576-11.8784 6.5536-25.3952 9.6256-40.3456 9.6256-14.9504 0-28.0576-3.072-39.5264-9.0112-11.4688-5.9392-20.8896-14.7456-28.4672-26.4192-7.5776-11.6736-13.5168-25.8048-17.408-42.8032-3.8912-16.9984-5.9392-36.2496-5.9392-57.9584 0-23.552 2.048-44.4416 5.9392-62.6688 3.8912-18.2272 9.8304-33.5872 17.8176-46.08 7.9872-12.4928 18.0224-21.9136 30.1056-28.4672 12.0832-6.5536 26.2144-9.6256 42.3936-9.6256 60.6208 0 90.7264 46.8992 90.7264 140.6976 0 22.3232-2.2528 42.3936-6.5536 60.0064C870.4 707.584 864.0512 722.5344 855.8592 734.8224z" p-id="12319" class="" fill="#ffffff"></path></svg>