<?xml version="1.0" standalone="no"?><!DOCTYPE svg PUBLIC "-//W3C//DTD SVG 1.1//EN" "http://www.w3.org/Graphics/SVG/1.1/DTD/svg11.dtd"><svg t="1495185327122" class="icon" style="" viewBox="0 0 1024 1024" version="1.1" xmlns="http://www.w3.org/2000/svg" p-id="12194" xmlns:xlink="http://www.w3.org/1999/xlink" width="200" height="200"><defs><style type="text/css"></style></defs><path d="M 872.498 69.221 h -85.788 v 68.774 c 0 26.152 -24.223 47.424 -54.03 47.424 c -29.783 0 -54.024 -21.272 -54.024 -47.424 v -68.774 h -333.311 v 68.774 c 0 26.152 -24.245 47.424 -54.026 47.424 c -29.806 0 -54.028 -21.272 -54.028 -47.424 v -68.774 h -85.789 c -57.875 0 -104.957 41.311 -104.957 92.07 v 742.897 c 0 50.76 47.081 92.091 104.957 92.091 h 720.997 c 57.874 0 104.956 -41.331 104.956 -92.091 v -742.895 c -0.002 -50.761 -47.083 -92.072 -104.957 -92.072 v 0 Z M 909.139 890.161 c 0 16.394 -16.42 29.735 -36.64 29.735 h -720.998 c -20.223 0 -36.64 -13.341 -36.64 -29.735 v -560.316 h 794.278 v 560.316 Z M 292.217 167.29 c 14.297 0 25.844 -8.884 25.844 -19.851 v -124.28 c 0 -10.967 -11.551 -19.85 -25.844 -19.85 c -14.297 0 -25.874 8.884 -25.874 19.85 v 124.28 c 0 10.966 11.577 19.851 25.874 19.851 v 0 Z M 731.781 167.29 c 14.296 0 25.876 -8.884 25.876 -19.851 v -124.28 c 0 -10.967 -11.58 -19.85 -25.876 -19.85 c -14.295 0 -25.842 8.884 -25.842 19.85 v 124.28 c 0.002 10.966 11.549 19.851 25.842 19.851 Z M 750.101 498.095 l -253.748 292.527 c -13.522 15.589 -35.446 15.589 -48.968 0 l -142.456 -164.225 c -13.522 -15.589 -13.522 -40.865 0 -56.453 c 13.523 -15.589 35.447 -15.589 48.969 0 l 117.971 135.999 l 229.263 -264.302 c 13.522 -15.588 35.446 -15.588 48.968 0 c 13.523 15.59 13.523 40.865 0.001 56.454 Z" p-id="12195"></path></svg>