<?xml version="1.0" standalone="no"?><!DOCTYPE svg PUBLIC "-//W3C//DTD SVG 1.1//EN" "http://www.w3.org/Graphics/SVG/1.1/DTD/svg11.dtd"><svg t="1495186520867" class="icon" style="" viewBox="0 0 1024 1024" version="1.1" xmlns="http://www.w3.org/2000/svg" p-id="20953" xmlns:xlink="http://www.w3.org/1999/xlink" width="200" height="200"><defs><style type="text/css"></style></defs><path d="M283.521 570.147c-24.06 0-43.53 19.23-43.53 42.966 0 23.734 19.47 42.965 43.53 42.965 24.018 0 43.512-19.23 43.512-42.965 0-23.735-19.494-42.966-43.512-42.966z m589.277-133.663L796.525 239.95c-14.358-37.418-45.446-69.419-104.141-69.419H618.94s-34.982-1.459-52.953-1.459h-77.686c-17.97 0-52.953 1.459-52.953 1.459H327.423c-58.606 0-89.717 32.001-104.031 69.419l-74.164 196.534c-30.261 3.895-83.778 39.333-83.778 106.469v171.733c0 16.883-1.698 64.961 63.567 64.961h39.007v55.519c0 61.326 68.55 63.372 68.55 0v-55.519h548.834v55.519c1.066 62.328 69.616 61.326 68.551 0v-55.519h39.006c62.764 0 63.59-53.126 63.59-64.961V542.953c0.022-67.137-53.54-102.574-83.757-106.469zM279.193 258.985c7.199-21.712 17.947-37.418 43.118-37.681h373.141c25.083 0.262 35.852 15.968 43.03 37.681L808.709 441.4H210.076l69.117-182.415z m626.782 411.996c0 31.653-25.976 57.303-58.021 57.303H175.095c-32.024 0-58.02-25.649-58.02-57.303V548.414c0-31.655 25.995-57.303 58.02-57.303h672.858c32.046 0 58.021 25.647 58.021 57.303v122.567h0.001zM762.282 570.147c-24.039 0-43.531 19.23-43.531 42.966 0 23.734 19.492 42.965 43.531 42.965 24.04 0 43.532-19.23 43.532-42.965 0-23.735-19.492-42.966-43.532-42.966z" p-id="20954"></path></svg>