<?xml version="1.0" standalone="no"?><!DOCTYPE svg PUBLIC "-//W3C//DTD SVG 1.1//EN" "http://www.w3.org/Graphics/SVG/1.1/DTD/svg11.dtd"><svg t="1495186511098" class="icon" style="" viewBox="0 0 1024 1024" version="1.1" xmlns="http://www.w3.org/2000/svg" p-id="20706" xmlns:xlink="http://www.w3.org/1999/xlink" width="200" height="200"><defs><style type="text/css"></style></defs><path d="M512 68.266803c-244.694001 0-443.733197 199.049428-443.733197 443.733197 0 244.694001 199.039195 443.733197 443.733197 443.733197 244.684792 0 443.733197-199.039195 443.733197-443.733197 0-244.684792-199.048405-443.733197-443.733197-443.733197z m0 840.765769c-218.889289 0-397.032572-178.055279-397.032572-397.032572 0-218.879056 178.144306-397.023362 397.032572-397.023362 218.879056 0 397.023362 178.144306 397.023362 397.023362 0 218.977293-178.144306 397.032572-397.023362 397.032572z" p-id="20707"></path><path d="M488.60108 491.588111H301.778114v46.700625h233.522568V210.211652h-46.699602z" p-id="20708"></path></svg>