<?xml version="1.0" standalone="no"?><!DOCTYPE svg PUBLIC "-//W3C//DTD SVG 1.1//EN" "http://www.w3.org/Graphics/SVG/1.1/DTD/svg11.dtd"><svg t="1495186585230" class="icon" style="" viewBox="0 0 1024 1024" version="1.1" xmlns="http://www.w3.org/2000/svg" p-id="21698" xmlns:xlink="http://www.w3.org/1999/xlink" width="200" height="200"><defs><style type="text/css"></style></defs><path d="M890.059452 959.108061c-20.318768 0-38.216393-14.728446-41.557488-35.431977-20.010753-123.822097-96.100732-227.125881-203.555046-276.332583l-67.193355-30.766724 60.696384-42.168402c62.844304-43.663452 100.367919-115.253954 100.367919-191.508685 0-128.528282-104.511285-233.093802-232.969982-233.093802S272.877901 254.372431 272.877901 382.900713c0 78.319763 39.081087 150.986783 104.538915 194.383152l61.642942 40.86471L372.477316 650.355091c-103.310947 49.968042-176.965457 151.35108-197.011003 271.193539-3.848655 22.946618-25.539676 38.408775-48.527227 34.615379-22.953781-3.841491-38.45687-25.567305-34.615379-48.527227 20.86112-124.707256 89.714278-233.375212 188.394764-301.172317-58.529021-58.871829-92.13542-138.776693-92.13542-223.565798 0-175.010943 142.323473-317.38865 317.26483-317.38865s317.26483 142.377708 317.26483 317.38865c0 82.044598-31.864732 160.104441-87.402629 218.564901 103.392812 67.74901 175.079504 179.236174 196.002023 308.766272 3.717671 22.980387-11.902074 44.617174-34.882462 48.328705C894.552789 958.928982 892.288213 959.108061 890.059452 959.108061z" p-id="21699"></path></svg>