<?xml version="1.0" standalone="no"?><!DOCTYPE svg PUBLIC "-//W3C//DTD SVG 1.1//EN" "http://www.w3.org/Graphics/SVG/1.1/DTD/svg11.dtd"><svg t="1495186528557" class="icon" style="" viewBox="0 0 1025 1024" version="1.1" xmlns="http://www.w3.org/2000/svg" p-id="21200" xmlns:xlink="http://www.w3.org/1999/xlink" width="200.1953125" height="200"><defs><style type="text/css"></style></defs><path d="M892.992 592q-8.992 0-15.488 6.016t-6.496 15.008l0 304.992q0 18.016-12.992 31.008t-31.008 12.992l-610.016 0q-18.016 0-30.496-12.992t-12.512-31.008l0-304.992q0-8.992-6.496-15.008t-15.488-6.016-15.488 6.016-6.496 15.008l0 304.992q0 36 25.504 61.504t60.512 25.504l612 0q36 0 60.992-25.504t24.992-61.504l0-304.992q0-8.992-6.016-15.008t-15.008-6.016zM1004 303.008l-139.008-256-0.992 0q-23.008-40.992-70.016-43.008l-536 0q-50.016 0-75.008 43.008l-0.992 0-139.008 256q-20 32.992-20 72 0 58.016 41.504 99.488t99.488 41.504q38.016 0 69.504-18.016t50.496-48.992q20 31.008 51.488 48.512t68.512 17.504 68.992-18.016 51.008-48q19.008 30.016 50.496 48t68.992 18.016 68.992-17.504 50.496-48.512q19.008 31.008 51.008 48.992t68.992 18.016q59.008 0 100.512-41.504t41.504-99.488q0-39.008-20.992-72zM883.488 472q-40.512 0-69.504-28.512t-28.992-68.512q0-3.008-0.512-7.008t-6.016-10.016-15.488-6.016q-8.992 0-15.488 6.496t-6.496 15.488q0 40-28.512 68.992t-68.992 28.992-68.992-28.992-28.512-68.992q0-8.992-6.496-15.488t-15.488-6.496-15.488 6.496-6.496 15.488q0 40-28.992 68.992t-69.504 28.992-68.992-28.992-28.512-68.992q0-8.992-6.496-15.488t-15.488-6.496q-10.016 0-15.008 6.016t-6.016 10.016-0.992 6.016q0 40.992-28.512 69.504t-69.504 28.512q-40 0-68.992-28.512t-28.992-68.512q0-11.008 5.504-27.008t11.488-27.008l4.992-10.016 132-242.016q12.992-22.016 38.016-22.016l4 0.992 0-0.992 523.008 0 0 0.992q4-0.992 4.992-0.992 24 0 36.992 22.016l132 242.016q22.016 40.992 22.016 64 0 40-28.512 68.512t-68.992 28.512z" p-id="21201"></path></svg>