<?xml version="1.0" standalone="no"?><!DOCTYPE svg PUBLIC "-//W3C//DTD SVG 1.1//EN" "http://www.w3.org/Graphics/SVG/1.1/DTD/svg11.dtd"><svg t="1495187618088" class="icon" style="" viewBox="0 0 1024 1024" version="1.1" xmlns="http://www.w3.org/2000/svg" p-id="21949" xmlns:xlink="http://www.w3.org/1999/xlink" width="200" height="200"><defs><style type="text/css"></style></defs><path d="M767.885312 281.401344c-33.104896-33.104896-71.65952-59.101184-114.598912-77.263872-44.4672-18.807808-91.68896-28.34432-140.35456-28.34432-48.666624 0-95.889408 9.536512-140.355584 28.34432-42.935296 18.161664-81.494016 44.158976-114.597888 77.263872-33.104896 33.108992-59.101184 71.662592-77.263872 114.603008-18.807808 44.4672-28.342272 91.68896-28.342272 140.35456 0 48.661504 9.535488 95.884288 28.342272 140.351488 18.162688 42.940416 44.153856 81.499136 77.263872 114.603008 33.103872 33.104896 71.662592 59.101184 114.597888 77.263872 44.471296 18.807808 91.68896 28.342272 140.355584 28.342272 48.6656 0 95.88736-9.535488 140.35456-28.342272 42.940416-18.162688 81.494016-44.158976 114.598912-77.263872 33.108992-33.103872 59.10016-71.662592 77.262848-114.597888 18.807808-44.47232 28.348416-91.68896 28.348416-140.355584 0-48.6656-9.541632-95.88736-28.348416-140.35456C826.985472 353.063936 800.99328 314.510336 767.885312 281.401344L767.885312 281.401344zM512.930816 847.799296c-171.730944 0-311.440384-139.712512-311.440384-311.440384 0-171.730944 139.70944-311.43936 311.440384-311.43936s311.43936 139.708416 311.43936 311.43936C824.370176 708.086784 684.66176 847.799296 512.930816 847.799296L512.930816 847.799296zM512.930816 847.799296" p-id="21950"></path><path d="M534.326272 309.758976c0-13.563904-10.99776-24.561664-24.562688-24.561664-13.565952 0-24.562688 10.99776-24.562688 24.561664L485.200896 547.16416c0 13.565952 10.99776 24.562688 24.562688 24.562688l266.556416 0c13.564928 0 24.561664-10.99776 24.561664-24.562688 0-13.563904-10.99776-24.561664-24.561664-24.561664L534.326272 522.602496 534.326272 309.758976 534.326272 309.758976zM534.326272 309.758976" p-id="21951"></path><path d="M317.80352 169.009152c9.591808-9.591808 9.591808-25.138176 0-34.735104-9.591808-9.591808-25.143296-9.586688-34.735104 0L124.9536 292.388864c-9.591808 9.591808-9.591808 25.143296 0 34.735104 4.798464 4.798464 11.081728 7.192576 17.370112 7.192576 6.283264 0 12.571648-2.394112 17.364992-7.192576L317.80352 169.009152 317.80352 169.009152zM317.80352 169.009152" p-id="21952"></path><path d="M899.0464 292.388864 740.932608 134.274048c-9.591808-9.591808-25.143296-9.591808-34.735104 0-9.591808 9.591808-9.591808 25.143296 0 34.735104l158.113792 158.114816c4.798464 4.793344 11.082752 7.192576 17.370112 7.192576 6.283264 0 12.571648-2.399232 17.364992-7.192576C908.638208 317.533184 908.638208 301.980672 899.0464 292.388864L899.0464 292.388864zM899.0464 292.388864" p-id="21953"></path></svg>