<?xml version="1.0" standalone="no"?><!DOCTYPE svg PUBLIC "-//W3C//DTD SVG 1.1//EN" "http://www.w3.org/Graphics/SVG/1.1/DTD/svg11.dtd"><svg t="1495186577732" class="icon" style="" viewBox="0 0 1024 1024" version="1.1" xmlns="http://www.w3.org/2000/svg" p-id="21449" xmlns:xlink="http://www.w3.org/1999/xlink" width="200" height="200"><defs><style type="text/css"></style></defs><path d="M860.71717 842.228073 160.28659 842.228073c-53.601802 0-97.216135-45.666062-97.216135-101.793384L63.070454 295.611671c0-56.098669 43.615357-101.736079 97.216135-101.736079L860.71717 193.875592c53.576219 0 97.188506 45.638433 97.188506 101.736079l0 444.823018C957.905676 796.560988 914.293389 842.228073 860.71717 842.228073zM160.28659 230.828202c-33.236985 0-60.260455 29.049616-60.260455 64.783469l0 444.823018c0 35.762505 27.02347 64.840774 60.260455 64.840774L860.71717 805.275463c33.211403 0 60.231803-29.078269 60.231803-64.840774L920.948973 295.611671c0-35.733852-27.0204-64.783469-60.231803-64.783469L160.28659 230.828202z" p-id="21450"></path><path d="M510.446621 552.302915c-3.662413 0-7.381108-1.111311-10.597359-3.38612L89.011266 259.487939c-8.350179-5.880941-10.347672-17.395182-4.466732-25.716708 5.826705-8.324596 17.367553-10.378371 25.719778-4.468778l410.835949 289.427832c8.352225 5.884011 10.349719 17.395182 4.465708 25.719778C521.989515 549.555337 516.273327 552.302915 510.446621 552.302915z" p-id="21451"></path><path d="M510.503926 552.302915c-5.827729 0-11.515265-2.747577-15.123442-7.852852-5.880941-8.324596-3.883447-19.835767 4.469801-25.719778l410.806273-289.427832c8.324596-5.909593 19.838837-3.854794 25.719778 4.468778 5.880941 8.321526 3.883447 19.835767-4.465708 25.716708L521.100262 548.915771C517.880941 551.191604 514.165316 552.302915 510.503926 552.302915z" p-id="21452"></path></svg>