<?xml version="1.0" standalone="no"?><!DOCTYPE svg PUBLIC "-//W3C//DTD SVG 1.1//EN" "http://www.w3.org/Graphics/SVG/1.1/DTD/svg11.dtd"><svg t="1495187905077" class="icon" style="" viewBox="0 0 1024 1024" version="1.1" xmlns="http://www.w3.org/2000/svg" p-id="22075" xmlns:xlink="http://www.w3.org/1999/xlink" width="200" height="200"><defs><style type="text/css"></style></defs><path d="M734.170009 552.423665c0 153.348574-115.697045 223.192292-223.193315 223.192292-107.49627 0-223.193315-69.843718-223.193315-223.192292l-40.932248 0c0 81.286328 28.705785 149.767002 83.012645 198.040449 43.156916 38.361703 99.589183 61.197804 160.646793 65.376986l0 16.637935L426.855808 832.479035l0 40.932248 168.241772 0 0-40.932248-63.654762 0 0-16.637935c61.057611-4.178159 117.489878-27.015284 160.646793-65.376986 54.30686-48.273447 83.012645-116.755144 83.012645-198.040449L734.170009 552.423665zM488.340137 484.627582c0 39.47506 42.667775 71.475891 95.30153 71.475891s95.30153-32.000831 95.30153-71.475891c0-0.938372-0.047072-1.86958-0.094144-2.798742l0.538259 0 0-261.57753c49.804313 26.425859 81.262792 78.180594 81.262792 78.180594 0-78.452793-54.764278-110.977557-81.262792-122.125455l0-12.149714-38.120203 0 0 263.551488c-16.004509-9.127891-35.966143-14.555507-57.624419-14.555507C531.007913 413.150668 488.340137 445.152523 488.340137 484.627582zM482.049874 743.751225l57.852616 0c91.258447 0 165.501358-74.243935 165.501358-165.501358l0-26.238594-40.932248 0 0 26.238594c0 68.687382-55.881728 124.56911-124.56911 124.56911l-57.852616 0c-68.688405 0-124.56911-55.881728-124.56911-124.56911L357.480764 311.641763c0-68.688405 55.881728-124.56911 124.56911-124.56911l57.852616 0c4.16588 0 8.284687 0.209778 12.346189 0.610914l0-41.083697c-4.076852-0.301875-8.193613-0.460488-12.346189-0.460488l-57.852616 0c-91.258447 0-165.501358 74.243935-165.501358 165.501358l0 266.60708C316.548516 669.50729 390.792451 743.751225 482.049874 743.751225z" p-id="22076"></path></svg>