<?xml version="1.0" standalone="no"?><!DOCTYPE svg PUBLIC "-//W3C//DTD SVG 1.1//EN" "http://www.w3.org/Graphics/SVG/1.1/DTD/svg11.dtd"><svg t="1495186574537" class="icon" style="" viewBox="0 0 1024 1024" version="1.1" xmlns="http://www.w3.org/2000/svg" p-id="21323" xmlns:xlink="http://www.w3.org/1999/xlink" width="200" height="200"><defs><style type="text/css"></style></defs><path d="M822.323745 474.815099c3.289929-15.564487 5.084808-31.676443 5.084808-48.219211 0-128.21822-103.941304-232.160547-232.160547-232.160547-106.461707 0-195.969277 71.747067-223.354997 169.4636-13.704117-2.182712-27.650757-3.634784-41.970904-3.634784-146.536424 0-265.325901 118.789477-265.325901 265.325901s118.789477 265.325901 265.325901 265.325901l414.57204 0 16.582677 0 0-1.671059c111.171985-8.610098 198.99417-100.525508 198.99417-213.905788C960.070992 583.804373 902.800637 506.087337 822.323745 474.815099zM761.076822 856.078523l0 1.671059L329.922105 857.749582c-128.219243 0-232.160547-103.941304-232.160547-232.160547s103.941304-232.160547 232.160547-232.160547c23.896246 0 46.939055 3.628644 68.633147 10.334369 11.455913-99.009991 94.611821-176.163185 196.692754-176.163185 109.901039 0 198.99417 89.093131 198.99417 198.99417 0 24.735357-5.077645 48.15679-13.322423 70.003354 83.282798 16.884552 145.985886 90.472548 145.985886 178.73987C926.905638 770.402211 853.92037 847.574848 761.076822 856.078523z" p-id="21324"></path><path d="M379.670136 691.921789c-9.160637 0-16.582677 7.426133-16.582677 16.582677l0.402159 149.246139 33.165354 0-0.402159-149.246139C396.253836 699.347922 388.827703 691.921789 379.670136 691.921789z" p-id="21325"></path><path d="M512.333598 691.921789c-9.157567 0-16.582677 6.750751-16.582677 15.075347l0 150.753469 33.165354 0 0-150.753469C528.916275 698.67254 521.494235 691.921789 512.333598 691.921789z" p-id="21326"></path><path d="M644.99706 691.921789c-9.156544 0-16.582677 6.750751-16.582677 15.075347l0 150.753469 33.165354 0 0-150.753469C661.579737 698.67254 654.153604 691.921789 644.99706 691.921789z" p-id="21327"></path></svg>