<?xml version="1.0" standalone="no"?><!DOCTYPE svg PUBLIC "-//W3C//DTD SVG 1.1//EN" "http://www.w3.org/Graphics/SVG/1.1/DTD/svg11.dtd"><svg t="1495180871193" class="icon" style="" viewBox="0 0 1024 1024" version="1.1" xmlns="http://www.w3.org/2000/svg" p-id="4701" xmlns:xlink="http://www.w3.org/1999/xlink" width="200" height="200"><defs><style type="text/css"></style></defs><path d="M148.171599 256.903068 875.804864 256.903068c11.044996 0 19.975755-10.05296 19.975755-22.442128 0-12.389168-8.930759-22.398126-19.975755-22.398126L148.171599 212.062813c-11.022483 0-19.952218 10.008958-19.952218 22.398126C128.21938 246.850108 137.149116 256.903068 148.171599 256.903068zM875.804864 482.691487 148.171599 482.691487c-11.022483 0-19.952218 10.228969-19.952218 22.838148 0 12.588713 8.928712 22.794146 19.952218 22.794146L875.804864 528.32378c11.044996 0 19.975755-10.206456 19.975755-22.794146C895.779596 492.920456 886.849861 482.691487 875.804864 482.691487zM875.804864 754.133689 148.171599 754.133689c-11.022483 0-19.952218 10.031471-19.952218 22.419616 0 12.389168 8.928712 22.443152 19.952218 22.443152L875.804864 798.996456c11.044996 0 19.975755-10.05296 19.975755-22.443152C895.779596 764.16516 886.849861 754.133689 875.804864 754.133689z" p-id="4702" fill="#ffffff"></path></svg>